<svg width="100%" height="100%" viewBox="0 0 20 20" fill="none" xmlns="http://www.w3.org/2000/svg">
<path d="M19.389 7.42857C18.097 5.40128 15.1581 2 10 2C4.84191 2 1.903 5.40128 0.610978 7.42857C0.211566 8.05097 0 8.76825 0 9.5C0 10.2317 0.211566 10.949 0.610978 11.5714C1.903 13.5987 4.84191 17 10 17C15.1581 17 18.097 13.5987 19.389 11.5714C19.7884 10.949 20 10.2317 20 9.5C20 8.76825 19.7884 8.05097 19.389 7.42857V7.42857ZM17.9687 10.7311C16.8591 12.4695 14.3476 15.3949 10 15.3949C5.65244 15.3949 3.14087 12.4695 2.03129 10.7311C1.79399 10.3612 1.6683 9.93489 1.6683 9.5C1.6683 9.06511 1.79399 8.63881 2.03129 8.26886C3.14087 6.5305 5.65244 3.60514 10 3.60514C14.3476 3.60514 16.8591 6.52729 17.9687 8.26886C18.206 8.63881 18.3317 9.06511 18.3317 9.5C18.3317 9.93489 18.206 10.3612 17.9687 10.7311V10.7311Z" fill="currentColor"/>
<path d="M10 5.48716C9.17623 5.48716 8.37094 5.72251 7.68599 6.16344C7.00104 6.60438 6.46719 7.2311 6.15194 7.96435C5.83669 8.6976 5.75421 9.50445 5.91492 10.2829C6.07563 11.0613 6.47232 11.7763 7.05482 12.3375C7.63733 12.8987 8.37948 13.2809 9.18744 13.4357C9.99539 13.5906 10.8329 13.5111 11.5939 13.2074C12.355 12.9037 13.0055 12.3893 13.4632 11.7294C13.9209 11.0695 14.1651 10.2937 14.1651 9.5C14.1638 8.43612 13.7246 7.41618 12.9437 6.6639C12.1629 5.91162 11.1043 5.48843 10 5.48716V5.48716ZM10 11.9077C9.50574 11.9077 9.02257 11.7665 8.6116 11.5019C8.20063 11.2374 7.88032 10.8613 7.69117 10.4214C7.50202 9.98144 7.45253 9.49733 7.54896 9.03028C7.64538 8.56323 7.8834 8.13422 8.2329 7.7975C8.5824 7.46077 9.02769 7.23146 9.51247 7.13856C9.99724 7.04566 10.4997 7.09334 10.9564 7.27557C11.413 7.4578 11.8033 7.76641 12.0779 8.16235C12.3525 8.5583 12.4991 9.0238 12.4991 9.5C12.4991 10.1386 12.2358 10.751 11.7671 11.2025C11.2985 11.654 10.6628 11.9077 10 11.9077Z" fill="currentColor"/>
</svg>
